<?xml version="1.0" encoding="UTF-8" standalone="no"?>
<svg width="500px" height="553px" viewBox="0 0 500 553" version="1.1" xmlns="http://www.w3.org/2000/svg" xmlns:xlink="http://www.w3.org/1999/xlink" xmlns:sketch="http://www.bohemiancoding.com/sketch/ns">
    <!-- Generator: Sketch 3.2.2 (9983) - http://www.bohemiancoding.com/sketch -->
    <title>Artboard 1</title>
    <desc>Created with Sketch.</desc>
    <defs>
        <filter x="-50%" y="-50%" width="200%" height="200%" filterUnits="objectBoundingBox" id="filter-1">
            <feOffset dx="0" dy="3" in="SourceAlpha" result="shadowOffsetInner1"></feOffset>
            <feGaussianBlur stdDeviation="0" in="shadowOffsetInner1" result="shadowBlurInner1"></feGaussianBlur>
            <feComposite in="shadowBlurInner1" in2="SourceAlpha" operator="arithmetic" k2="-1" k3="1" result="shadowInnerInner1"></feComposite>
            <feColorMatrix values="0 0 0 0 0   0 0 0 0 0   0 0 0 0 0  0 0 0 0.236483809 0" in="shadowInnerInner1" type="matrix" result="shadowMatrixInner1"></feColorMatrix>
            <feMerge>
                <feMergeNode in="SourceGraphic"></feMergeNode>
                <feMergeNode in="shadowMatrixInner1"></feMergeNode>
            </feMerge>
        </filter>
        <filter x="-50%" y="-50%" width="200%" height="200%" filterUnits="objectBoundingBox" id="filter-2">
            <feOffset dx="0" dy="3" in="SourceAlpha" result="shadowOffsetInner1"></feOffset>
            <feGaussianBlur stdDeviation="0" in="shadowOffsetInner1" result="shadowBlurInner1"></feGaussianBlur>
            <feComposite in="shadowBlurInner1" in2="SourceAlpha" operator="arithmetic" k2="-1" k3="1" result="shadowInnerInner1"></feComposite>
            <feColorMatrix values="0 0 0 0 0   0 0 0 0 0   0 0 0 0 0  0 0 0 0.236483809 0" in="shadowInnerInner1" type="matrix" result="shadowMatrixInner1"></feColorMatrix>
            <feMerge>
                <feMergeNode in="SourceGraphic"></feMergeNode>
                <feMergeNode in="shadowMatrixInner1"></feMergeNode>
            </feMerge>
        </filter>
        <filter x="-50%" y="-50%" width="200%" height="200%" filterUnits="objectBoundingBox" id="filter-3">
            <feOffset dx="0" dy="3" in="SourceAlpha" result="shadowOffsetInner1"></feOffset>
            <feGaussianBlur stdDeviation="0" in="shadowOffsetInner1" result="shadowBlurInner1"></feGaussianBlur>
            <feComposite in="shadowBlurInner1" in2="SourceAlpha" operator="arithmetic" k2="-1" k3="1" result="shadowInnerInner1"></feComposite>
            <feColorMatrix values="0 0 0 0 0   0 0 0 0 0   0 0 0 0 0  0 0 0 0.236483809 0" in="shadowInnerInner1" type="matrix" result="shadowMatrixInner1"></feColorMatrix>
            <feMerge>
                <feMergeNode in="SourceGraphic"></feMergeNode>
                <feMergeNode in="shadowMatrixInner1"></feMergeNode>
            </feMerge>
        </filter>
        <filter x="-50%" y="-50%" width="200%" height="200%" filterUnits="objectBoundingBox" id="filter-4">
            <feOffset dx="0" dy="2" in="SourceAlpha" result="shadowOffsetInner1"></feOffset>
            <feGaussianBlur stdDeviation="0" in="shadowOffsetInner1" result="shadowBlurInner1"></feGaussianBlur>
            <feComposite in="shadowBlurInner1" in2="SourceAlpha" operator="arithmetic" k2="-1" k3="1" result="shadowInnerInner1"></feComposite>
            <feColorMatrix values="0 0 0 0 0   0 0 0 0 0   0 0 0 0 0  0 0 0 0.236483809 0" in="shadowInnerInner1" type="matrix" result="shadowMatrixInner1"></feColorMatrix>
            <feMerge>
                <feMergeNode in="SourceGraphic"></feMergeNode>
                <feMergeNode in="shadowMatrixInner1"></feMergeNode>
            </feMerge>
        </filter>
    </defs>
    <g id="Page-1" stroke="none" stroke-width="1" fill="none" fill-rule="evenodd" sketch:type="MSPage">
        <g id="Artboard-1" sketch:type="MSArtboardGroup">
            <path d="M250,31 L235.393679,31 L171.080479,296.900342 L30.6020225,352.941097 L30.6020225,429.7535 L183.277703,469 L207.771731,436.333527 L249.999699,436.333535 L292.109379,436.333527 L316.722297,469 L469.397978,429.7535 L469.397978,352.941097 L328.919521,296.900342 L264.606321,31 L250,31 Z" id="Path-2" fill="#ECEEEF" sketch:type="MSShapeGroup"></path>
            <path d="M208.301244,145.281547 L292.045444,145.281547 L292.045444,436.999992 L208.301244,437 L208.301244,145.281547 Z M207.828857,144.962891 L235.363892,30.9619141 L264.825414,30.9619141 L292.260803,145.245667 L207.828857,144.962891 Z" id="Rectangle-1" fill="#2C3E50" sketch:type="MSShapeGroup"></path>
            <g id="Motorblok" sketch:type="MSLayerGroup" transform="translate(214.000000, 350.000000)" fill="#1E8BC3">
                <rect id="Rectangle-2" filter="url(#filter-1)" sketch:type="MSShapeGroup" x="0" y="55" width="73" height="20" rx="4"></rect>
                <rect id="Rectangle-3" filter="url(#filter-2)" sketch:type="MSShapeGroup" x="0" y="28" width="73" height="20" rx="4"></rect>
                <rect id="Rectangle-4" filter="url(#filter-3)" sketch:type="MSShapeGroup" x="0" y="0" width="73" height="20" rx="4"></rect>
            </g>
            <path d="M250,436.000007 L229.084148,436.000007 L231.922673,443.620612 L250,443.620612 L268.077327,443.620612 L270.915852,436.000007 L250,436.000007 Z" id="Path-3" fill="#EBEEEF" sketch:type="MSShapeGroup"></path>
            <path d="M250,541.082775 C250.00109,541.08456 250.001638,541.085456 250.001638,541.085456 C250.300514,540.590184 270.915852,506.702139 270.915852,480.175555 C270.915852,453.455283 258.752486,443.620612 258.752486,443.620612 L250,443.620612 L241.247514,443.620612 C241.247514,443.620612 229.084148,453.455283 229.084148,480.175555 C229.084148,506.702139 249.699486,540.590184 249.998357,541.080082 C249.998362,541.085456 249.99891,541.08456 250,541.082775 Z" id="Vlam" fill="#95D1F2" sketch:type="MSShapeGroup"></path>
            <path d="M250,506.998256 C250.00086,506.999418 250.001292,507 250.001292,507 C250.237068,506.677935 266.5,484.641234 266.5,467.391541 C266.5,450.015897 256.90462,443.620612 256.90462,443.620612 L250,443.620612 L243.09538,443.620612 C243.09538,443.620612 233.5,450.015897 233.5,467.391541 C233.5,484.641234 249.762932,506.677935 249.998704,506.996506 C249.998708,507 249.99914,506.999418 250,506.998256 Z" id="Vlam-2" fill="#1E8BC3" sketch:type="MSShapeGroup"></path>
            <rect id="Rectangle-5" fill="#1E8BC3" filter="url(#filter-4)" sketch:type="MSShapeGroup" x="225" y="124" width="51" height="12" rx="3"></rect>
            <path d="M208,145 L292.180908,145 L295.095398,157 L208,157 L208,145 Z" id="Rectangle-6" fill="#EBEEEF" sketch:type="MSShapeGroup"></path>
        </g>
    </g>
</svg>